# xmcd
#
# Track frame offsets:
#	150
#	9450
#	19872
#	30690
#	41585
#	63717
#	73727
#	87572
#	97945
#	108100
#	120785
#	130222
#	140445
#	155230
#	171875
#	187687
#	206877
#	226170
#	245705
#	265485
#	283977
#
# Disc length: 4049
#
# Revision: 2
# Processed by: cddbd v1.5.1PL0 Copyright (c) Steve Scherf et al.
# Submitted via: audiograbber 1.82.02
# Normalized: r1:DSETVAR1
#
DISCID=2e0fcf15
DTITLE=Various Artist - Sounds of The Century Set Vol 1 CD 4 Of 4
DYEAR=1900
DGENRE=Country
TTITLE0=Johnny Rebb - Think Me A Kiss
TTITLE1=The Deltones - You're The Limit
TTITLE2=Tony Brady - Angel In The Red, White Scarf
TTITLE3=Diana Trask - Our Language Of Love
TTITLE4=Gary Shearston - Sydney Town
TTITLE5=Sandy Scott - Candy Kisses
TTITLE6=The Atlantics - War Of The Worlds
TTITLE7=Laura Lee - Treasure Of Your Love
TTITLE8=The Norfolk Signers - Nasho Service
TTITLE9=Sean And Sonia - Summertime Love
TTITLE10=The Group - I'm Satisfied
TTITLE11=Lynn Randell - Going Out Of My Head
TTITLE12=Ricky May - Summer In Sydney
TTITLE13=The Eurogliders - Heaven
TTITLE14=Normie Rowe - Don't Talk
TTITLE15=Men At Work - Dr Heckyll and Mr Jive
TTITLE16=Daryl Braithwaite - The Horses
TTITLE17=Tommy Emmanual - Initiation
TTITLE18=Tina Arena - Chains
TTITLE19=Human Nature - Wishes
TTITLE20=Tina Arena - Burn
EXTD=
EXTT0=
EXTT1=
EXTT2=
EXTT3=
EXTT4=
EXTT5=
EXTT6=
EXTT7=
EXTT8=
EXTT9=
EXTT10=
EXTT11=
EXTT12=
EXTT13=
EXTT14=
EXTT15=
EXTT16=
EXTT17=
EXTT18=
EXTT19=
EXTT20=
PLAYORDER=
